<svg width="16" height="15" viewBox="0 0 16 15" fill="none" xmlns="http://www.w3.org/2000/svg">
<path d="M2.37262 6.57037L4.42738 10.1293H0.317871L2.37262 6.57037Z" fill="black"/>
<path d="M13.6274 6.57037L15.6821 10.1293H11.5726L13.6274 6.57037Z" fill="black"/>
<path d="M7.96959 14.3574L10.0243 10.7985H5.91484L7.96959 14.3574Z" fill="black"/>
<path d="M7.96959 0L10.0243 3.55893H5.91484L7.96959 0Z" fill="black"/>
<path d="M7.96957 10.0989L8.9706 8.36502H6.96854L7.96957 10.0989Z" fill="black"/>
<path d="M5.84031 5.90114L6.84134 4.1673H4.83928L5.84031 5.90114Z" fill="black"/>
<path d="M10.0989 5.90114L11.0999 4.1673H9.09784L10.0989 5.90114Z" fill="black"/>
<path d="M1.7513 4.3048L3.97405 4.3048L7.30927 10.1065L5.08652 10.1065L1.7513 4.3048Z" fill="black"/>
<path d="M14.2576 4.30641L12.0349 4.30641L8.69962 10.1081L10.9224 10.1081L14.2576 4.30641Z" fill="black"/>
<circle cx="7.96958" cy="6.38782" r="1.76426" fill="black"/>
</svg>
