<svg width="70" height="30" viewBox="0 0 475 204" fill="none" xmlns="http://www.w3.org/2000/svg">
<path d="M32.6616 93.2167L61.8134 143.709H3.5098L32.6616 93.2167Z" fill="white"/>
<path d="M192.338 93.2167L221.49 143.709H163.187L192.338 93.2167Z" fill="white"/>
<path d="M112.068 203.696L141.22 153.203H82.9166L112.068 203.696Z" fill="white"/>
<path d="M112.068 0L141.22 50.4924H82.9166L112.068 0Z" fill="white"/>
<path d="M112.068 143.278L126.271 118.679H97.8663L112.068 143.278Z" fill="white"/>
<path d="M81.8593 83.7224L96.0615 59.1236H67.6572L81.8593 83.7224Z" fill="white"/>
<path d="M142.278 83.7224L156.48 59.1236H128.075L142.278 83.7224Z" fill="white"/>
<path d="M23.8464 61.0742L55.3817 61.0742L102.7 143.385L71.165 143.385L23.8464 61.0742Z" fill="white"/>
<path d="M201.28 61.0972L169.744 61.0972L122.426 143.408L153.961 143.408L201.28 61.0972Z" fill="white"/>
<circle cx="112.068" cy="90.6274" r="25.0304" fill="white"/>
<path d="M305.116 58.554C313.624 58.554 320.819 59.3418 326.701 60.9173C332.584 62.4929 337.258 65.539 340.724 70.0557C344.295 74.4673 346.081 80.8221 346.081 89.1201C346.081 92.7965 345.503 96.5778 344.348 100.464C343.298 104.246 341.932 107.554 340.251 110.39C338.676 113.226 337.258 115.065 335.997 115.905C334.527 116.955 331.271 117.796 326.229 118.426C321.187 118.951 315.252 119.214 308.425 119.214C306.009 119.214 302.28 119.109 297.238 118.898V148.834H268.878V59.0266C279.907 58.7115 291.986 58.554 305.116 58.554ZM316.933 99.0462C317.983 97.6807 318.508 94.9498 318.508 90.8533C318.508 85.4963 317.353 81.7149 315.042 79.5091C312.836 77.3033 308.95 76.2004 303.383 76.2004C301.492 76.2004 299.444 76.358 297.238 76.6731V100.622C298.289 100.727 300.337 100.779 303.383 100.779C311.471 100.779 315.988 100.202 316.933 99.0462Z" fill="white"/>
<path d="M365.609 117.712C361.225 117.712 357.937 116.689 355.745 114.643C353.589 112.561 352.511 109.291 352.511 104.834C352.511 102.386 352.73 100.249 353.169 98.4219C353.644 96.5586 354.21 95.2616 354.868 94.5309C355.708 93.581 357.243 92.7955 359.471 92.1744C361.736 91.5533 363.855 91.2428 365.828 91.2428C370.541 91.2428 373.903 92.2475 375.912 94.2569C377.921 96.2663 378.926 99.4814 378.926 103.902C378.926 108.652 377.848 112.141 375.693 114.369C373.537 116.598 370.176 117.712 365.609 117.712ZM365.773 111.301C367.198 111.301 368.13 110.807 368.568 109.821C369.007 108.798 369.226 107.008 369.226 104.45C369.226 102.66 369.135 101.29 368.952 100.34C368.769 99.3536 368.422 98.6411 367.911 98.2027C367.436 97.7277 366.687 97.4903 365.664 97.4903C364.202 97.4903 363.362 97.6181 363.143 97.8739C362.851 98.1296 362.613 98.9334 362.43 100.285C362.248 101.637 362.156 103.044 362.156 104.505C362.156 106.989 362.394 108.743 362.869 109.766C363.38 110.789 364.349 111.301 365.773 111.301ZM397.477 117H385.64L380.05 91.7908H389.64L392.107 110.533H392.271L395.066 91.7908H405.204L408.164 110.478H408.383L410.685 91.7908H420.33L414.74 117H402.848L400.217 101.765H400.053L397.477 117ZM438.199 110.424C439.113 110.424 440.812 110.332 443.296 110.15C443.625 110.15 444.228 110.113 445.105 110.04L445.927 115.685C443.113 117 439.46 117.658 434.966 117.658C430.765 117.658 427.531 116.598 425.266 114.479C423.037 112.36 421.923 109.163 421.923 104.889C421.923 102.697 422.197 100.577 422.745 98.5315C423.33 96.4856 423.987 95.0607 424.718 94.2569C425.485 93.4531 426.91 92.759 428.993 92.1744C431.075 91.5899 433.139 91.2976 435.185 91.2976C438.473 91.2976 440.94 91.8821 442.584 93.0513C444.228 94.2204 445.305 95.8462 445.817 97.9287C446.328 99.9747 446.584 102.733 446.584 106.204C444.1 106.35 441.67 106.423 439.295 106.423H431.513C431.513 107.592 431.751 108.469 432.226 109.054C432.737 109.638 433.45 110.022 434.363 110.204C435.277 110.351 436.555 110.424 438.199 110.424ZM432.061 97.8191C431.842 97.9287 431.678 98.4036 431.568 99.244C431.459 100.084 431.386 101.034 431.349 102.094H434.199C435.916 102.094 437.158 102.075 437.925 102.039C437.925 100.285 437.67 99.043 437.158 98.3123C436.683 97.5816 435.843 97.2163 434.637 97.2163C433.651 97.2163 432.792 97.4172 432.061 97.8191ZM465.501 91.2428C465.976 91.2428 466.47 91.2976 466.981 91.4072C467.529 91.5168 467.931 91.6447 468.187 91.7908C468.187 92.5946 468.095 93.9281 467.913 95.7914C467.73 97.6181 467.566 98.9151 467.419 99.6824C467.054 99.6458 466.378 99.6276 465.392 99.6276C463.09 99.6276 461.044 99.7554 459.254 100.011V117H449.883V91.7908H457.719L458.815 95.8462H458.87C459.93 94.4579 461.062 93.3435 462.268 92.5032C463.474 91.6629 464.551 91.2428 465.501 91.2428Z" fill="white"/>
<path d="M344.948 159.244H332.618L324.562 128.006H335.084L339.249 150.968H339.523L343.962 128.006H354.265L358.814 150.968H358.978L363.198 128.006H373.281L365.225 159.244H352.95L349.223 139.296H348.894L344.948 159.244ZM391.585 152.667C392.498 152.667 394.197 152.576 396.682 152.393C397.011 152.393 397.613 152.357 398.49 152.284L399.312 157.928C396.499 159.244 392.846 159.901 388.352 159.901C384.15 159.901 380.917 158.842 378.652 156.723C376.423 154.604 375.309 151.407 375.309 147.132C375.309 144.94 375.583 142.821 376.131 140.775C376.715 138.729 377.373 137.304 378.104 136.501C378.871 135.697 380.296 135.003 382.378 134.418C384.461 133.834 386.525 133.541 388.571 133.541C391.859 133.541 394.325 134.126 395.969 135.295C397.613 136.464 398.691 138.09 399.203 140.172C399.714 142.218 399.97 144.977 399.97 148.448C397.485 148.594 395.056 148.667 392.681 148.667H384.899C384.899 149.836 385.137 150.713 385.612 151.297C386.123 151.882 386.835 152.265 387.749 152.448C388.662 152.594 389.941 152.667 391.585 152.667ZM385.447 140.063C385.228 140.172 385.064 140.647 384.954 141.488C384.844 142.328 384.771 143.278 384.735 144.337H387.584C389.302 144.337 390.544 144.319 391.311 144.283C391.311 142.529 391.055 141.287 390.544 140.556C390.069 139.825 389.229 139.46 388.023 139.46C387.036 139.46 386.178 139.661 385.447 140.063ZM420.202 133.486C423.052 133.486 425.244 134.345 426.779 136.062C428.35 137.779 429.135 140.812 429.135 145.159C429.135 148.338 428.806 151.06 428.149 153.325C427.528 155.554 426.815 156.979 426.011 157.6C425.061 158.367 423.655 158.933 421.792 159.298C419.928 159.664 417.809 159.847 415.434 159.847C413.608 159.847 411.562 159.7 409.297 159.408C407.031 159.152 405.004 158.732 403.213 158.148V126.362L412.694 125.978V131.13C412.694 131.422 412.676 132.098 412.64 133.158C412.64 134.217 412.603 135.112 412.53 135.843C412.457 136.537 412.347 137.067 412.201 137.432L412.53 137.816C413.37 136.537 414.43 135.496 415.708 134.692C416.987 133.888 418.485 133.486 420.202 133.486ZM418.668 153.27C418.887 152.905 419.07 152.046 419.216 150.694C419.399 149.343 419.49 148.046 419.49 146.803C419.49 145.342 419.417 144.191 419.271 143.351C419.161 142.511 418.85 141.853 418.339 141.378C417.864 140.867 417.115 140.611 416.092 140.611C415.179 140.611 414.01 140.739 412.585 140.994V153.38C413.937 153.599 415.343 153.709 416.805 153.709C417.864 153.709 418.485 153.562 418.668 153.27Z" fill="white"/>
</svg>
